<svg xmlns="http://www.w3.org/2000/svg" viewBox="0 0 32 32" fill="none">
  <!-- Steel plate favicon — readable at 16px -->
  <rect width="32" height="32" rx="3" fill="#121418"/>
  <rect x="1.5" y="1.5" width="29" height="29" rx="2.2" fill="#2a3038" stroke="#8a929c" stroke-width="1.25"/>
  <!-- rivets -->
  <circle cx="5.5" cy="5.5" r="1.35" fill="#9aa2aa"/>
  <circle cx="26.5" cy="5.5" r="1.35" fill="#9aa2aa"/>
  <circle cx="5.5" cy="26.5" r="1.35" fill="#9aa2aa"/>
  <circle cx="26.5" cy="26.5" r="1.35" fill="#9aa2aa"/>
  <!-- rust accents -->
  <path d="M3 22c2 2 4 4 6 6H3.2C2.5 26 2.5 24 3 22z" fill="#7a3428" opacity="0.55"/>
  <!-- monogram r -->
  <path
    d="M9.2 23.2V8.6h6.2c3.15 0 5.15 1.65 5.15 4.2 0 1.9-1 3.25-2.7 3.85L21.5 23.2h-2.95l-3.45-5.7h-2.95v5.7H9.2zm2.85-8.2h3.1c1.65 0 2.6-.85 2.6-2.1s-.95-2.05-2.6-2.05h-3.1v4.15z"
    fill="#c8d0d8"
  />
</svg>
