<svg xmlns="http://www.w3.org/2000/svg" viewBox="0 0 32 32" fill="none">
  <rect width="32" height="32" rx="2" fill="#0b0c0e"/>
  <rect x="1.5" y="1.5" width="29" height="29" rx="1.5" stroke="#6a7280" stroke-width="1.2"/>
  <path d="M2 24 Q6 27 10 30 H2.5Z" fill="#7a3428" opacity="0.5"/>
  <circle cx="6" cy="6" r="1.1" fill="#0a0a0c" stroke="#4a4848" stroke-width="0.4"/>
  <circle cx="26" cy="6" r="1.1" fill="#0a0a0c" stroke="#4a4848" stroke-width="0.4"/>
  <circle cx="6" cy="26" r="1.1" fill="#0a0a0c" stroke="#4a4848" stroke-width="0.4"/>
  <circle cx="26" cy="26" r="1.1" fill="#0a0a0c" stroke="#4a4848" stroke-width="0.4"/>
  <path d="M8 8h16M8 9.2h16" stroke="#5a626c" stroke-width="0.6"/>
  <path d="M9.5 23V9.8h5.9c2.9 0 4.85 1.55 4.85 4 0 1.8-.95 3.1-2.55 3.65L20.8 23h-2.75l-3.2-5.4H12.1V23H9.5Zm2.65-7.85h2.9c1.5 0 2.4-.8 2.4-2s-.9-2-2.4-2h-2.9v4Z" fill="#a04a38"/>
</svg>
